<svg id="Layer_1" xmlns="http://www.w3.org/2000/svg" viewBox="1019 750.8 305.5 100"><style>.st0{fill:#757575;} .st1{font-family:&amp;apos;OpenSans-Extrabold&amp;apos;;} .st2{font-size:50.1799px;} .st3{letter-spacing:-2;} .st4{font-family:&amp;apos;OpenSans-Semibold&amp;apos;;}</style><path class="st0" d="M1071.7 814l-39.5-63.2h-10.9c-2.2 0-3 1.5-1.9 3.4l26.5 43.3.1.2 18 28.7 7.7-12.4zM1077.8 804.2c1.1-1.8 1.1-4.9 0-6.7l-26.8-43.3c-1.1-1.8-3.9-3.4-6-3.4h-11l38.6 61.8 5.2-8.4zM1055.4 815.4l-22.1 35.4h11.8c2.2 0 4.9-1.5 6-3.4l10.7-17.3c0-.1.1-.2.3-.5l1.1-1.8-7.8-12.4zM1046 804.2l-26.5 43.3c-1.1 1.9-.3 3.4 1.9 3.4h10.1l23-36.8-7.7-12.4c-.1.9-.4 1.8-.8 2.5z"/><text transform="translate(1094.187 820.152)"><tspan x="0" y="0" class="st0 st1 st2 st3">GDG </tspan><tspan x="123.4" y="0" class="st0 st4 st2 st3">Paris</tspan></text></svg>