<svg id="dark" xmlns="http://www.w3.org/2000/svg" viewBox="95.2 1678.4 613.9 200"><style>.st0{fill:#F6C25B;} .st1{fill:#0A985C;} .st2{fill:#5586C5;} .st3{fill:#D9423E;} .st4{fill:#168B58;} .st5{fill:#D7AB56;} .st6{fill:#4E4E4E;} .st7{font-family:&amp;apos;OpenSans-Extrabold&amp;apos;;} .st8{font-size:75px;} .st9{letter-spacing:-4;} .st10{font-family:&amp;apos;OpenSans-Semibold&amp;apos;;} .st11{font-size:66px;}</style><path class="st0" d="M122.1 1878.4h22.6c5.4 0 12-3.8 14.8-8.4l19.1-31.7c2.3-4.7 2.2-11.4-.4-15.7l-11.3-18.6-44.8 74.4z"/><path class="st1" d="M146.4 1786.8L96.1 1871c-1.9 4.1.1 7.5 5.1 7.5h20.9l44.8-74.4-20.5-33.9c2.8 4.4 2.8 12 0 16.6"/><path class="st2" d="M101.1 1678.4c-5.4 0-7.5 3.8-4.7 8.4l81.8 135.8c2.6 4.3 2.6 11.1.4 15.7l19.9-33.1-76.3-126.8h-21.1z"/><path class="st3" d="M122.1 1678.4l76.3 126.8 11.1-18.4c2.8-4.6 2.8-12.1 0-16.7l-50-83.3c-2.8-4.6-9.4-8.4-14.8-8.4h-22.6z"/><path class="st4" d="M146.4 1786.8l-12 20.1 21.5 15.3 11-18.2-20.5-33.9c2.8 4.5 2.8 12.1 0 16.7z"/><path class="st5" d="M166.9 1804l-11 18.2 22.6 16.1c2.3-4.7 2.2-11.4-.4-15.7l-11.2-18.6z"/><text transform="translate(251.503 1767.567)" class="st6 st7 st8 st9">GDG DevFest</text><text transform="translate(258.25 1838.153)" class="st6 st10 st11">Paris 2016</text></svg>