<?xml version="1.0" encoding="UTF-8" ?>
<!DOCTYPE svg PUBLIC "-//W3C//DTD SVG 1.1//EN" "http://www.w3.org/Graphics/SVG/1.1/DTD/svg11.dtd">
<svg width="960pt" height="540pt" viewBox="0 0 960 540" version="1.1" xmlns="http://www.w3.org/2000/svg">
<path fill="#ffffff" d=" M 0.00 0.00 L 960.00 0.00 L 960.00 540.00 L 0.00 540.00 L 0.00 0.00 Z" />
<path fill="#010100" d=" M 539.32 11.43 C 542.64 11.41 546.02 11.04 549.29 11.77 C 551.54 13.54 552.93 16.13 554.62 18.41 C 590.73 70.29 626.89 122.13 663.07 173.96 C 665.12 177.17 667.59 180.13 669.30 183.54 C 670.98 189.54 668.57 195.55 667.51 201.42 C 665.05 211.45 663.33 221.63 660.87 231.65 C 659.89 236.04 658.73 240.40 658.25 244.89 C 687.10 227.17 715.94 209.42 744.82 191.74 C 747.95 189.11 751.92 191.67 755.24 192.62 C 757.36 193.12 758.78 194.67 759.31 196.76 C 775.02 239.67 790.68 282.61 806.39 325.52 C 807.84 329.16 808.35 333.26 807.11 337.04 C 796.24 378.46 785.33 419.86 774.56 461.31 C 774.18 463.63 772.90 465.63 770.92 466.91 C 758.65 475.60 746.76 484.84 734.39 493.41 C 729.98 496.54 724.14 496.03 719.23 494.56 C 697.75 489.40 676.25 484.31 654.75 479.21 C 651.54 478.48 648.35 477.63 645.07 477.31 C 642.03 483.29 639.88 489.69 636.56 495.53 C 635.09 498.29 631.84 499.32 629.06 500.23 C 612.61 504.07 596.23 508.18 579.80 512.11 C 576.15 513.02 572.46 511.80 568.82 511.47 C 545.92 508.24 523.01 505.06 500.11 501.86 C 496.21 501.28 492.67 498.74 490.77 495.29 C 488.19 490.62 485.57 485.96 482.85 481.37 C 476.01 490.08 469.62 499.14 462.92 507.96 C 461.28 510.08 458.88 511.59 456.25 512.09 C 432.32 517.56 408.35 522.86 384.40 528.23 C 380.34 529.02 375.91 530.59 371.86 529.07 C 369.02 526.36 367.60 522.52 365.67 519.17 C 354.95 499.91 344.38 480.56 333.72 461.26 C 332.03 457.98 329.86 454.91 328.75 451.36 C 316.88 415.06 304.12 379.05 292.39 342.72 C 288.25 319.16 284.61 295.51 280.64 271.92 C 280.52 269.46 281.92 267.21 283.26 265.25 C 310.73 230.36 338.08 195.38 365.59 160.53 C 368.73 155.80 376.66 155.62 380.58 159.41 C 393.94 175.95 407.20 192.60 420.73 209.01 C 419.11 197.98 417.27 186.97 415.57 175.95 C 415.29 172.86 416.59 169.86 418.57 167.56 C 455.84 119.17 493.13 70.80 530.46 22.46 C 533.29 18.68 536.00 14.80 539.32 11.43 Z" />
<path fill="#f3483c" d=" M 529.70 33.67 C 534.03 28.26 537.96 22.53 542.63 17.39 C 543.50 17.47 545.23 17.63 546.10 17.71 C 568.49 49.62 590.71 81.65 612.88 113.71 C 609.81 116.39 606.90 119.32 604.89 122.88 C 601.22 129.28 597.39 135.64 594.72 142.54 C 593.10 146.69 591.20 150.72 589.01 154.59 C 587.43 151.18 585.95 147.72 584.81 144.14 C 581.38 132.58 576.37 121.58 572.93 110.02 C 564.81 88.13 558.05 65.39 545.42 45.53 C 542.86 41.55 540.78 37.02 537.01 34.01 C 535.10 32.27 533.27 34.62 531.79 35.75 C 528.16 39.19 524.69 42.81 520.81 45.98 C 523.28 41.54 526.65 37.70 529.70 33.67 Z" />
<path fill="#ff5546" d=" M 531.79 35.75 C 533.27 34.62 535.10 32.27 537.01 34.01 C 540.78 37.02 542.86 41.55 545.42 45.53 C 558.05 65.39 564.81 88.13 572.93 110.02 C 576.37 121.58 581.38 132.58 584.81 144.14 C 585.95 147.72 587.43 151.18 589.01 154.59 C 591.20 150.72 593.10 146.69 594.72 142.54 C 597.39 135.64 601.22 129.28 604.89 122.88 C 606.90 119.32 609.81 116.39 612.88 113.71 C 628.79 136.02 644.12 158.74 659.94 181.12 C 661.55 183.72 664.34 186.31 663.52 189.68 C 659.32 208.88 655.26 228.13 651.15 247.36 C 650.87 249.12 649.45 250.17 648.02 251.01 C 640.36 255.69 632.74 260.42 625.06 265.07 C 621.59 267.06 618.10 269.88 617.55 274.12 C 614.68 288.34 611.78 302.57 609.25 316.86 C 602.67 316.11 596.15 314.80 589.83 312.87 C 590.63 312.89 592.22 312.94 593.02 312.97 C 590.02 311.15 586.50 309.88 584.16 307.18 C 582.90 303.95 583.76 300.37 584.04 297.04 C 587.16 274.88 588.63 252.51 589.36 230.15 C 589.39 221.64 590.77 212.95 588.46 204.60 C 587.00 199.32 585.80 193.97 584.22 188.72 C 582.62 183.30 578.62 179.14 575.12 174.88 C 569.46 168.22 564.57 160.82 557.88 155.10 C 547.92 146.39 536.58 139.45 525.15 132.87 C 518.18 128.84 510.62 125.99 503.26 122.78 C 500.80 121.52 497.73 120.32 496.82 117.44 C 495.11 112.12 494.93 106.41 492.91 101.17 C 491.47 97.03 488.77 93.51 486.04 90.15 C 494.93 78.97 503.53 67.57 512.27 56.28 C 515.02 52.77 517.51 49.01 520.81 45.98 C 524.69 42.81 528.16 39.19 531.79 35.75 Z" />
<path fill="#ff6252" d=" M 451.27 135.29 C 462.82 120.21 474.43 105.18 486.04 90.15 C 488.77 93.51 491.47 97.03 492.91 101.17 C 494.93 106.41 495.11 112.12 496.82 117.44 C 497.73 120.32 500.80 121.52 503.26 122.78 C 510.62 125.99 518.18 128.84 525.15 132.87 C 536.58 139.45 547.92 146.39 557.88 155.10 C 564.57 160.82 569.46 168.22 575.12 174.88 C 578.62 179.14 582.62 183.30 584.22 188.72 C 585.80 193.97 587.00 199.32 588.46 204.60 C 590.77 212.95 589.39 221.64 589.36 230.15 C 588.63 252.51 587.16 274.88 584.04 297.04 C 583.76 300.37 582.90 303.95 584.16 307.18 C 586.50 309.88 590.02 311.15 593.02 312.97 C 592.22 312.94 590.63 312.89 589.83 312.87 C 585.79 312.71 581.89 311.63 577.95 310.85 C 556.62 306.44 535.30 301.97 513.94 297.70 C 509.71 298.33 504.72 299.32 502.24 303.23 C 495.40 312.57 488.83 322.11 481.77 331.29 C 480.75 327.27 479.38 323.25 479.40 319.05 C 479.36 308.02 479.61 296.98 479.54 285.94 C 479.51 281.35 476.14 277.88 473.49 274.49 C 469.78 269.54 465.37 265.11 462.02 259.92 C 459.64 247.41 459.20 234.63 457.72 222.01 C 457.02 216.79 457.51 210.62 453.33 206.70 C 445.14 198.22 436.56 190.11 428.39 181.60 C 425.84 178.96 423.87 175.84 422.17 172.60 C 432.25 160.47 441.49 147.67 451.27 135.29 Z" />
<path fill="#ffdf01" d=" M 370.68 165.63 C 371.66 164.02 373.72 164.48 375.31 164.19 C 383.81 174.86 392.38 185.46 400.94 196.07 C 403.82 199.66 406.93 203.09 409.34 207.03 C 408.75 206.64 407.59 205.85 407.01 205.45 C 402.46 202.18 399.39 197.39 395.86 193.13 C 390.32 186.48 385.35 179.31 378.95 173.42 C 376.38 183.07 376.11 193.13 373.90 202.85 C 370.86 216.80 368.89 230.96 365.77 244.90 C 362.79 260.95 360.38 277.11 356.96 293.08 C 355.82 298.28 355.21 303.56 354.88 308.86 C 367.01 312.85 379.92 312.06 392.44 313.69 C 397.24 314.20 402.19 315.18 406.96 313.93 C 419.87 310.09 431.09 301.83 444.32 298.91 C 444.46 299.62 444.73 301.04 444.87 301.75 C 443.04 307.93 440.42 313.87 439.25 320.24 C 437.10 331.27 435.37 342.47 435.49 353.74 C 436.12 366.54 440.01 378.87 442.70 391.33 C 444.52 400.66 450.28 409.00 450.08 418.75 C 449.24 425.51 446.03 431.62 442.18 437.14 C 438.45 442.94 435.25 449.10 431.06 454.60 C 428.81 451.57 426.62 448.49 424.47 445.39 C 400.39 447.13 376.26 448.04 352.22 450.30 C 347.03 450.82 341.82 450.83 336.61 450.64 C 329.93 431.56 323.17 412.50 316.64 393.37 C 316.08 391.63 315.49 389.88 315.24 388.06 C 315.06 386.68 314.93 385.30 314.77 383.92 C 322.72 381.41 327.57 373.80 330.26 366.35 C 334.50 354.16 332.63 340.88 329.13 328.76 C 327.07 322.28 324.68 315.90 323.05 309.29 C 328.27 304.45 333.80 299.89 338.43 294.45 C 346.16 285.30 353.01 275.16 356.86 263.72 C 360.31 253.46 362.68 242.54 361.44 231.68 C 360.70 225.07 359.06 218.58 356.57 212.42 C 354.99 208.17 352.81 203.61 354.17 199.00 C 355.63 193.81 356.91 188.57 357.21 183.17 C 357.47 181.99 358.41 181.13 359.10 180.19 C 363.12 175.46 366.71 170.39 370.68 165.63 Z" />
<path fill="#9e2b24" d=" M 424.16 190.85 C 423.30 184.79 421.82 178.76 422.17 172.60 C 423.87 175.84 425.84 178.96 428.39 181.60 C 436.56 190.11 445.14 198.22 453.33 206.70 C 451.76 206.06 450.17 205.50 448.59 204.93 C 446.21 213.95 445.49 223.28 443.66 232.41 C 442.38 232.44 441.11 232.48 439.84 232.51 C 436.70 228.55 433.32 224.79 430.26 220.76 C 427.78 217.69 427.57 213.60 426.94 209.86 C 426.11 203.51 425.06 197.19 424.16 190.85 Z" />
<path fill="#ffec00" d=" M 373.90 202.85 C 376.11 193.13 376.38 183.07 378.95 173.42 C 385.35 179.31 390.32 186.48 395.86 193.13 C 399.39 197.39 402.46 202.18 407.01 205.45 C 405.82 212.06 406.02 218.87 407.61 225.40 C 412.34 248.35 424.68 268.86 438.72 287.29 C 441.21 290.62 443.57 294.03 445.94 297.44 C 445.60 298.88 445.25 300.32 444.87 301.75 C 444.73 301.04 444.46 299.62 444.32 298.91 C 431.09 301.83 419.87 310.09 406.96 313.93 C 402.19 315.18 397.24 314.20 392.44 313.69 C 379.92 312.06 367.01 312.85 354.88 308.86 C 355.21 303.56 355.82 298.28 356.96 293.08 C 360.38 277.11 362.79 260.95 365.77 244.90 C 368.89 230.96 370.86 216.80 373.90 202.85 Z" />
<path fill="#fffe00" d=" M 353.43 187.50 C 354.62 186.00 355.86 184.53 357.21 183.17 C 356.91 188.57 355.63 193.81 354.17 199.00 C 352.81 203.61 354.99 208.17 356.57 212.42 C 359.06 218.58 360.70 225.07 361.44 231.68 C 362.68 242.54 360.31 253.46 356.86 263.72 C 353.01 275.16 346.16 285.30 338.43 294.45 C 333.80 299.89 328.27 304.45 323.05 309.29 C 324.68 315.90 327.07 322.28 329.13 328.76 C 332.63 340.88 334.50 354.16 330.26 366.35 C 327.57 373.80 322.72 381.41 314.77 383.92 C 311.55 365.62 309.39 347.14 306.09 328.85 C 304.56 320.20 304.52 311.18 301.12 302.95 C 296.77 291.96 292.44 280.95 288.49 269.80 C 293.73 264.20 297.95 257.74 302.91 251.90 C 319.74 230.43 336.54 208.93 353.43 187.50 Z" />
<path fill="#13ac62" d=" M 678.11 240.78 C 701.78 226.20 725.38 211.49 749.21 197.16 C 751.18 198.36 753.31 199.67 753.91 202.08 C 767.79 240.50 781.79 278.88 795.65 317.30 C 797.55 322.36 799.58 327.42 800.63 332.74 C 789.02 335.64 777.41 338.60 765.92 341.95 C 759.70 364.95 754.73 388.26 748.44 411.25 C 744.22 428.73 739.76 446.15 735.64 463.65 C 733.55 471.49 731.35 479.30 729.76 487.26 L 729.51 488.42 C 722.36 488.02 715.51 485.78 708.56 484.23 C 691.19 480.28 673.96 475.59 656.47 472.22 C 654.54 467.77 653.22 462.93 653.85 458.05 C 659.94 444.73 666.01 431.40 672.06 418.06 C 674.19 413.55 674.16 407.95 671.24 403.79 C 662.45 390.81 653.32 378.06 644.74 364.95 C 646.72 360.59 647.27 355.76 647.12 351.02 C 646.79 334.68 647.19 318.33 646.82 301.99 C 646.71 297.16 647.02 292.01 649.88 287.91 C 660.28 272.47 671.95 257.81 680.77 241.37 C 680.11 241.22 678.78 240.93 678.11 240.78 Z" />
<path fill="#92251e" d=" M 443.66 232.41 C 445.49 223.28 446.21 213.95 448.59 204.93 C 450.17 205.50 451.76 206.06 453.33 206.70 C 457.51 210.62 457.02 216.79 457.72 222.01 C 459.20 234.63 459.64 247.41 462.02 259.92 C 454.42 250.96 447.13 241.73 439.84 232.51 C 441.11 232.48 442.38 232.44 443.66 232.41 Z" />
<path fill="#ffff00" d=" M 407.01 205.45 C 407.59 205.85 408.75 206.64 409.34 207.03 C 412.24 209.36 414.09 212.70 416.49 215.49 C 435.09 238.40 453.43 261.50 472.05 284.38 C 469.88 286.76 467.70 289.27 464.74 290.69 C 458.76 293.63 452.49 296.09 445.94 297.44 C 443.57 294.03 441.21 290.62 438.72 287.29 C 424.68 268.86 412.34 248.35 407.61 225.40 C 406.02 218.87 405.82 212.06 407.01 205.45 Z" />
<path fill="#16bc6c" d=" M 629.61 270.59 C 645.85 260.78 661.91 250.66 678.11 240.78 C 678.78 240.93 680.11 241.22 680.77 241.37 C 671.95 257.81 660.28 272.47 649.88 287.91 C 647.02 292.01 646.71 297.16 646.82 301.99 C 647.19 318.33 646.79 334.68 647.12 351.02 C 647.27 355.76 646.72 360.59 644.74 364.95 C 635.88 352.83 627.73 340.20 619.00 327.99 C 617.66 325.99 616.06 324.07 615.35 321.74 C 615.22 318.61 616.05 315.55 616.65 312.51 C 619.32 300.62 621.27 288.57 623.96 276.68 C 624.45 273.65 627.24 272.06 629.61 270.59 Z" />
<path fill="#fdbc02" d=" M 290.07 285.27 C 289.26 280.15 287.86 275.03 288.49 269.80 C 292.44 280.95 296.77 291.96 301.12 302.95 C 304.52 311.18 304.56 320.20 306.09 328.85 C 309.39 347.14 311.55 365.62 314.77 383.92 C 314.93 385.30 315.06 386.68 315.24 388.06 C 312.36 381.78 310.61 375.07 308.30 368.58 C 305.27 358.87 301.46 349.39 298.91 339.54 C 296.00 321.44 293.02 303.36 290.07 285.27 Z" />
<path fill="#fff101" d=" M 472.05 284.38 C 472.84 296.91 471.95 309.49 472.32 322.03 C 472.57 328.13 475.67 333.83 475.53 339.92 C 470.76 346.94 465.54 353.65 460.69 360.61 C 458.41 363.95 455.54 366.93 453.73 370.57 C 452.30 378.63 452.83 386.86 451.74 394.96 C 451.71 404.96 449.80 414.90 450.64 424.92 C 450.34 422.87 450.19 420.80 450.08 418.75 C 450.28 409.00 444.52 400.66 442.70 391.33 C 440.01 378.87 436.12 366.54 435.49 353.74 C 435.37 342.47 437.10 331.27 439.25 320.24 C 440.42 313.87 443.04 307.93 444.87 301.75 C 445.25 300.32 445.60 298.88 445.94 297.44 C 452.49 296.09 458.76 293.63 464.74 290.69 C 467.70 289.27 469.88 286.76 472.05 284.38 Z" />
<path fill="#56b0ff" d=" M 508.39 307.42 C 510.23 304.63 513.87 305.26 516.69 305.62 C 540.50 310.56 564.32 315.48 588.18 320.22 C 591.00 320.83 593.91 321.20 596.63 322.23 C 599.05 324.14 601.30 326.26 603.61 328.32 C 602.34 331.26 601.24 334.59 598.39 336.39 C 591.58 341.38 583.05 342.42 575.04 344.16 C 570.13 345.15 566.94 349.27 563.93 352.91 C 559.53 358.40 553.91 363.51 552.69 370.79 C 549.29 387.26 546.87 403.96 542.37 420.19 C 539.55 430.86 538.61 442.28 533.03 452.02 C 529.38 458.30 525.51 464.47 521.17 470.30 C 508.42 452.40 497.37 433.36 486.36 414.36 C 485.77 414.85 484.60 415.83 484.01 416.32 C 480.66 410.51 477.00 404.87 473.89 398.91 C 469.54 390.52 462.89 383.24 460.57 373.89 C 476.85 351.98 492.27 329.43 508.39 307.42 Z" />
<path fill="#51a4ff" d=" M 596.63 322.23 C 601.41 322.85 607.34 323.13 610.04 327.84 C 626.20 351.61 642.48 375.31 658.57 399.13 C 657.35 400.34 656.14 401.56 654.93 402.78 C 645.65 396.42 635.76 391.00 626.74 384.28 C 619.60 378.98 611.66 374.84 604.79 369.17 C 602.11 367.16 599.52 364.66 596.14 363.96 C 593.63 365.04 591.98 367.34 590.47 369.50 C 579.83 386.12 569.92 403.24 558.08 419.06 C 549.52 432.19 541.55 445.71 532.56 458.56 C 529.12 463.63 525.94 468.87 522.41 473.88 C 517.75 469.96 514.51 464.74 510.35 460.36 C 504.19 452.28 499.79 443.08 494.54 434.42 C 490.91 428.46 487.41 422.42 484.01 416.32 C 484.60 415.83 485.77 414.85 486.36 414.36 C 497.37 433.36 508.42 452.40 521.17 470.30 C 525.51 464.47 529.38 458.30 533.03 452.02 C 538.61 442.28 539.55 430.86 542.37 420.19 C 546.87 403.96 549.29 387.26 552.69 370.79 C 553.91 363.51 559.53 358.40 563.93 352.91 C 566.94 349.27 570.13 345.15 575.04 344.16 C 583.05 342.42 591.58 341.38 598.39 336.39 C 601.24 334.59 602.34 331.26 603.61 328.32 C 601.30 326.26 599.05 324.14 596.63 322.23 Z" />
<path fill="#0b6539" d=" M 765.92 341.95 C 777.41 338.60 789.02 335.64 800.63 332.74 C 790.39 371.31 780.80 410.04 770.82 448.68 C 769.34 453.75 769.21 460.14 764.12 463.14 C 752.51 470.96 741.63 479.84 729.76 487.26 C 731.35 479.30 733.55 471.49 735.64 463.65 C 739.76 446.15 744.22 428.73 748.44 411.25 C 754.73 388.26 759.70 364.95 765.92 341.95 Z" />
<path fill="#4994ff" d=" M 590.47 369.50 C 591.98 367.34 593.63 365.04 596.14 363.96 C 599.52 364.66 602.11 367.16 604.79 369.17 C 611.66 374.84 619.60 378.98 626.74 384.28 C 635.76 391.00 645.65 396.42 654.93 402.78 C 656.14 401.56 657.35 400.34 658.57 399.13 C 660.69 402.07 662.83 405.02 664.75 408.11 C 666.05 409.92 665.91 412.40 665.05 414.37 C 653.45 439.61 641.55 464.73 630.20 490.10 C 601.33 486.70 572.67 481.62 543.87 477.56 C 535.44 476.37 527.00 474.59 518.43 475.23 C 515.34 470.50 512.64 465.52 510.35 460.36 C 514.51 464.74 517.75 469.96 522.41 473.88 C 525.94 468.87 529.12 463.63 532.56 458.56 C 541.55 445.71 549.52 432.19 558.08 419.06 C 569.92 403.24 579.83 386.12 590.47 369.50 Z" />
<path fill="#21447c" d=" M 460.31 373.04 L 460.57 373.89 C 462.89 383.24 469.54 390.52 473.89 398.91 C 477.00 404.87 480.66 410.51 484.01 416.32 C 487.41 422.42 490.91 428.46 494.54 434.42 C 499.79 443.08 504.19 452.28 510.35 460.36 C 512.64 465.52 515.34 470.50 518.43 475.23 C 527.00 474.59 535.44 476.37 543.87 477.56 C 572.67 481.62 601.33 486.70 630.20 490.10 C 626.73 493.18 621.99 493.69 617.67 494.81 C 605.98 497.73 594.30 500.73 582.63 503.75 C 578.50 504.88 574.18 504.72 570.00 504.06 C 552.20 501.41 534.37 499.00 516.57 496.42 C 511.41 495.62 506.15 495.36 501.11 493.98 C 498.34 493.27 497.06 490.47 495.67 488.27 C 485.37 469.97 474.79 451.83 464.44 433.56 C 462.18 429.50 459.36 425.68 457.82 421.27 C 456.81 416.55 458.03 411.72 458.23 406.98 C 458.77 395.65 460.45 384.39 460.31 373.04 Z" />
<path fill="#f6b500" d=" M 442.18 437.14 C 446.03 431.62 449.24 425.51 450.08 418.75 C 450.19 420.80 450.34 422.87 450.64 424.92 C 460.00 441.58 469.74 458.04 478.81 474.86 C 471.79 483.86 465.21 493.20 458.24 502.25 C 456.90 504.22 454.70 505.30 452.40 505.68 C 432.15 510.28 411.92 514.95 391.66 519.49 C 386.21 520.55 380.90 522.39 375.33 522.77 C 362.13 498.89 349.54 474.67 336.61 450.64 C 341.82 450.83 347.03 450.82 352.22 450.30 C 376.26 448.04 400.39 447.13 424.47 445.39 C 426.62 448.49 428.81 451.57 431.06 454.60 C 435.25 449.10 438.45 442.94 442.18 437.14 Z" />
<path fill="#0d6439" d=" M 648.76 470.12 C 650.32 466.03 651.95 461.98 653.85 458.05 C 653.22 462.93 654.54 467.77 656.47 472.22 C 653.89 471.53 651.32 470.83 648.76 470.12 Z" />
</svg>
