<?xml version="1.0" encoding="utf-8"?>
<!-- Generator: Adobe Illustrator 19.0.0, SVG Export Plug-In . SVG Version: 6.00 Build 0)  -->
<svg version="1.1" id="Layer_1" xmlns="http://www.w3.org/2000/svg" xmlns:xlink="http://www.w3.org/1999/xlink" x="0px" y="0px"
	 viewBox="1019 750.8 305.5 100" style="enable-background:new 1019 750.8 305.5 100;" xml:space="preserve">
<style type="text/css">
	.st0{fill:#757575;}
</style>
<g>
	<path class="st0" d="M1071.7,814l-39.5-63.2h-10.9c-2.2,0-3,1.5-1.9,3.4l26.5,43.3l0.1,0.2l18,28.7L1071.7,814z"/>
	<path class="st0" d="M1077.8,804.2c1.1-1.8,1.1-4.9,0-6.7l-26.8-43.3c-1.1-1.8-3.9-3.4-6-3.4h-11l38.6,61.8L1077.8,804.2z"/>
	<path class="st0" d="M1055.4,815.4l-22.1,35.4h11.8c2.2,0,4.9-1.5,6-3.4l10.7-17.3c0-0.1,0.1-0.2,0.3-0.5l1.1-1.8L1055.4,815.4z"/>
	<path class="st0" d="M1046,804.2l-26.5,43.3c-1.1,1.9-0.3,3.4,1.9,3.4h10.1l23-36.8l-7.7-12.4
		C1046.7,802.6,1046.4,803.5,1046,804.2z"/>
</g>
<g>
	<path class="st0" d="M1112.4,799.2h15.5v19.3c-4.2,1.4-8.8,2.2-13.8,2.2c-5.5,0-9.8-1.6-12.8-4.8c-3-3.2-4.5-7.8-4.5-13.7
		c0-5.8,1.6-10.3,4.9-13.5c3.3-3.2,7.9-4.8,13.9-4.8c2.3,0,4.4,0.2,6.4,0.6s3.7,1,5.2,1.6l-3.1,7.6c-2.6-1.3-5.4-1.9-8.5-1.9
		c-2.8,0-5,0.9-6.6,2.8c-1.5,1.8-2.3,4.5-2.3,7.9c0,3.3,0.7,5.9,2.1,7.7c1.4,1.8,3.4,2.6,6,2.6c1.4,0,2.8-0.1,4-0.4v-5.6h-6.4V799.2
		z"/>
	<path class="st0" d="M1162.9,801.5c0,6-1.6,10.6-4.9,13.8c-3.3,3.2-7.9,4.9-13.9,4.9h-11.6v-35.8h12.4c5.7,0,10.2,1.5,13.3,4.4
		C1161.3,791.7,1162.9,795.9,1162.9,801.5z M1152.8,801.8c0-3.3-0.6-5.7-1.9-7.3c-1.3-1.6-3.3-2.4-5.9-2.4h-2.8v20.1h2.2
		c2.9,0,5.1-0.9,6.5-2.6S1152.8,805.3,1152.8,801.8z"/>
	<path class="st0" d="M1180.9,799.2h15.5v19.3c-4.2,1.4-8.8,2.2-13.8,2.2c-5.5,0-9.8-1.6-12.8-4.8c-3-3.2-4.5-7.8-4.5-13.7
		c0-5.8,1.7-10.3,5-13.5c3.3-3.2,7.9-4.8,13.9-4.8c2.3,0,4.4,0.2,6.4,0.6s3.7,1,5.2,1.6l-3.1,7.6c-2.6-1.3-5.4-1.9-8.5-1.9
		c-2.8,0-5,0.9-6.6,2.8c-1.5,1.8-2.3,4.5-2.3,7.9c0,3.3,0.7,5.9,2.1,7.7c1.4,1.8,3.4,2.6,6,2.6c1.4,0,2.8-0.1,4-0.4v-5.6h-6.4V799.2
		z"/>
	<path class="st0" d="M1246,795.2c0,3.7-1.2,6.6-3.7,8.6c-2.5,2-5.9,3-10.5,3h-3.7v13.4h-5.9v-35.8h10.3c4.5,0,7.8,0.9,10.1,2.7
		C1244.9,788.9,1246,791.6,1246,795.2z M1228.2,801.8h3.1c3,0,5.2-0.5,6.6-1.6c1.4-1,2.1-2.7,2.1-4.9c0-2.1-0.6-3.6-1.9-4.6
		c-1.3-1-3.2-1.5-5.9-1.5h-4.1V801.8z"/>
	<path class="st0" d="M1266.8,820.2l-1.2-3.8h-0.2c-1.3,1.7-2.6,2.8-3.9,3.4s-3,0.9-5.1,0.9c-2.7,0-4.7-0.7-6.2-2.2
		c-1.5-1.4-2.2-3.5-2.2-6.1c0-2.8,1-4.9,3.1-6.3c2.1-1.4,5.2-2.2,9.5-2.3l4.7-0.1v-1.4c0-1.7-0.4-3-1.2-3.9
		c-0.8-0.9-2.1-1.3-3.8-1.3c-1.4,0-2.7,0.2-4,0.6c-1.3,0.4-2.5,0.9-3.7,1.4l-1.9-4.1c1.5-0.8,3.1-1.4,4.8-1.8s3.4-0.6,4.9-0.6
		c3.4,0,6,0.8,7.8,2.3c1.8,1.5,2.6,3.9,2.6,7.1v18.3H1266.8z M1258.2,816.2c2.1,0,3.8-0.6,5-1.8c1.3-1.2,1.9-2.8,1.9-4.9v-2.4
		l-3.5,0.1c-2.7,0.1-4.7,0.6-5.9,1.4s-1.8,2-1.8,3.7c0,1.2,0.4,2.1,1.1,2.8C1255.7,815.9,1256.7,816.2,1258.2,816.2z"/>
	<path class="st0" d="M1289.9,792.6c1.2,0,2.1,0.1,2.9,0.2l-0.6,5.4c-0.8-0.2-1.7-0.3-2.5-0.3c-2.3,0-4.2,0.8-5.6,2.3
		c-1.4,1.5-2.1,3.5-2.1,5.9v14.2h-5.8v-27.1h4.5l0.8,4.8h0.3c0.9-1.6,2.1-2.9,3.5-3.8S1288.2,792.6,1289.9,792.6z"/>
	<path class="st0" d="M1294.7,785.9c0-1,0.3-1.8,0.8-2.4c0.6-0.6,1.4-0.8,2.4-0.8c1,0,1.8,0.3,2.4,0.8s0.8,1.3,0.8,2.4
		c0,1-0.3,1.8-0.8,2.3s-1.4,0.8-2.4,0.8c-1,0-1.8-0.3-2.4-0.8C1295,787.6,1294.7,786.9,1294.7,785.9z M1300.8,820.2h-5.8v-27.1h5.8
		V820.2z"/>
	<path class="st0" d="M1324.5,812.4c0,2.6-1,4.7-2.9,6.1s-4.7,2.1-8.3,2.1c-3.6,0-6.5-0.5-8.7-1.6v-5c3.2,1.5,6.2,2.2,8.9,2.2
		c3.5,0,5.3-1.1,5.3-3.2c0-0.7-0.2-1.3-0.6-1.7c-0.4-0.5-1-0.9-1.9-1.4c-0.9-0.5-2.1-1-3.7-1.7c-3.1-1.2-5.2-2.4-6.3-3.6
		s-1.7-2.8-1.7-4.7c0-2.3,0.9-4.1,2.8-5.4c1.9-1.3,4.4-1.9,7.6-1.9c3.2,0,6.2,0.6,9,1.9l-1.9,4.3c-2.9-1.2-5.4-1.8-7.4-1.8
		c-3,0-4.6,0.9-4.6,2.6c0,0.8,0.4,1.6,1.2,2.2c0.8,0.6,2.5,1.4,5.2,2.4c2.2,0.9,3.9,1.7,4.9,2.4s1.8,1.5,2.3,2.5
		S1324.5,811.1,1324.5,812.4z"/>
</g>
<g>
</g>
</svg>
