<?xml version="1.0" encoding="utf-8"?>
<!-- Generator: Adobe Illustrator 19.0.0, SVG Export Plug-In . SVG Version: 6.00 Build 0)  -->
<svg version="1.1" id="Layer_1" xmlns="http://www.w3.org/2000/svg" xmlns:xlink="http://www.w3.org/1999/xlink" x="0px" y="0px"
	 viewBox="410.4 3024.1 615.2 200" style="enable-background:new 410.4 3024.1 615.2 200;" xml:space="preserve">
<style type="text/css">
	.st0{fill:#FFFFFF;}
</style>
<g>
	<path class="st0" d="M515.9,3150.5l-79-126.4h-21.8c-4.4,0-6,3-3.8,6.7l53,86.5l0.3,0.4l35.9,57.5L515.9,3150.5z"/>
	<path class="st0" d="M528.1,3130.8c2.3-3.7,2.3-9.7,0-13.4l-53.6-86.6c-2.3-3.7-7.7-6.7-12-6.7h-22l77.2,123.5L528.1,3130.8z"/>
	<path class="st0" d="M483.2,3153.3l-44.2,70.8h23.5c4.3,0,9.8-3,12-6.7l21.4-34.6c0.1-0.1,0.2-0.4,0.6-1l2.2-3.6L483.2,3153.3z"/>
	<path class="st0" d="M464.4,3130.8l-53,86.5c-2.3,3.7-0.6,6.7,3.8,6.7h20.3l46-73.6l-15.4-24.8
		C465.8,3127.5,465.2,3129.3,464.4,3130.8z"/>
</g>
<g>
	<path class="st0" d="M595.3,3081.4h23.1v28.9c-6.3,2.1-13.2,3.2-20.7,3.2c-8.3,0-14.6-2.4-19.1-7.2c-4.5-4.8-6.8-11.6-6.8-20.5
		c0-8.6,2.5-15.4,7.4-20.2c4.9-4.8,11.8-7.2,20.7-7.2c3.4,0,6.5,0.3,9.5,1c3,0.6,5.6,1.4,7.8,2.4l-4.6,11.4
		c-3.9-1.9-8.1-2.9-12.7-2.9c-4.2,0-7.5,1.4-9.8,4.1c-2.3,2.7-3.5,6.7-3.5,11.8c0,5,1,8.8,3.1,11.4c2.1,2.6,5.1,3.9,9,3.9
		c2.1,0,4.1-0.2,5.9-0.6v-8.4h-9.6V3081.4z"/>
	<path class="st0" d="M669.9,3084.8c0,8.9-2.5,15.8-7.4,20.7s-11.8,7.2-20.7,7.2h-17.3v-53.5h18.5c8.6,0,15.2,2.2,19.9,6.6
		S669.9,3076.5,669.9,3084.8z M654.9,3085.3c0-4.9-1-8.5-2.9-10.9c-1.9-2.4-4.9-3.6-8.8-3.6h-4.2v30h3.2c4.4,0,7.6-1.3,9.7-3.8
		S654.9,3090.6,654.9,3085.3z"/>
	<path class="st0" d="M696.1,3081.4h23.1v28.9c-6.3,2.1-13.2,3.2-20.7,3.2c-8.3,0-14.6-2.4-19.1-7.2c-4.5-4.8-6.8-11.6-6.8-20.5
		c0-8.6,2.5-15.4,7.4-20.2c4.9-4.8,11.8-7.2,20.7-7.2c3.4,0,6.5,0.3,9.5,1c3,0.6,5.6,1.4,7.8,2.4l-4.6,11.4
		c-3.9-1.9-8.1-2.9-12.7-2.9c-4.2,0-7.5,1.4-9.8,4.1c-2.3,2.7-3.5,6.7-3.5,11.8c0,5,1,8.8,3.1,11.4c2.1,2.6,5.1,3.9,9,3.9
		c2.1,0,4.1-0.2,5.9-0.6v-8.4h-9.6V3081.4z"/>
	<path class="st0" d="M799.9,3084.8c0,8.9-2.5,15.8-7.4,20.7s-11.8,7.2-20.7,7.2h-17.3v-53.5H773c8.6,0,15.2,2.2,19.9,6.6
		S799.9,3076.5,799.9,3084.8z M784.9,3085.3c0-4.9-1-8.5-2.9-10.9c-1.9-2.4-4.9-3.6-8.8-3.6h-4.2v30h3.2c4.4,0,7.6-1.3,9.7-3.8
		S784.9,3090.6,784.9,3085.3z"/>
	<path class="st0" d="M823.8,3113.4c-6.9,0-12.3-1.8-16.1-5.5c-3.8-3.7-5.7-8.9-5.7-15.7c0-7,1.8-12.4,5.3-16.1s8.6-5.6,15.2-5.6
		c6.2,0,11.1,1.6,14.5,4.9c3.4,3.3,5.1,8,5.1,14.1v6.4h-25.6c0.1,2.3,0.9,4.1,2.5,5.5c1.6,1.3,3.8,2,6.5,2c2.5,0,4.8-0.2,6.9-0.7
		c2.1-0.5,4.4-1.3,6.9-2.4v10.3c-2.2,1.1-4.6,1.9-7,2.4S827.1,3113.4,823.8,3113.4z M823,3080.2c-1.7,0-3.1,0.5-4.2,1.6
		c-1.1,1.1-1.8,2.7-2,5H829c0-2-0.6-3.6-1.7-4.8C826.2,3080.8,824.8,3080.2,823,3080.2z"/>
	<path class="st0" d="M856.1,3112.7l-15.8-41.5h14.9l7,24.5c0,0.1,0.1,0.3,0.1,0.6s0.1,0.6,0.2,1s0.1,0.8,0.2,1.3
		c0.1,0.5,0.1,0.9,0.1,1.3h0.3c0-1.3,0.2-2.6,0.7-4.1l7.4-24.6h14.9l-15.8,41.5H856.1z"/>
	<path class="st0" d="M901.3,3112.7H887v-53.5h31.6v11.6h-17.4v10.2h16v11.6h-16V3112.7z"/>
	<path class="st0" d="M941.8,3113.4c-6.9,0-12.3-1.8-16.1-5.5c-3.8-3.7-5.7-8.9-5.7-15.7c0-7,1.8-12.4,5.3-16.1s8.6-5.6,15.2-5.6
		c6.2,0,11.1,1.6,14.5,4.9c3.4,3.3,5.1,8,5.1,14.1v6.4h-25.6c0.1,2.3,0.9,4.1,2.5,5.5c1.6,1.3,3.8,2,6.5,2c2.5,0,4.8-0.2,6.9-0.7
		c2.1-0.5,4.4-1.3,6.9-2.4v10.3c-2.2,1.1-4.6,1.9-7,2.4S945.1,3113.4,941.8,3113.4z M940.9,3080.2c-1.7,0-3.1,0.5-4.2,1.6
		c-1.1,1.1-1.8,2.7-2,5H947c0-2-0.6-3.6-1.7-4.8C944.2,3080.8,942.8,3080.2,940.9,3080.2z"/>
	<path class="st0" d="M995.3,3100c0,4.4-1.5,7.8-4.5,10.1c-3,2.3-7.4,3.4-13,3.4c-3.1,0-5.7-0.2-8-0.5c-2.3-0.3-4.6-0.9-7-1.8v-11.5
		c2.2,1,4.7,1.8,7.3,2.4c2.6,0.6,5,1,7.1,1c3.1,0,4.7-0.7,4.7-2.1c0-0.7-0.4-1.4-1.3-2c-0.9-0.6-3.4-1.7-7.6-3.4
		c-3.8-1.6-6.5-3.3-8-5.3c-1.5-2-2.3-4.5-2.3-7.6c0-3.9,1.5-6.9,4.5-9c3-2.1,7.2-3.2,12.6-3.2c2.7,0,5.3,0.3,7.7,0.9
		c2.4,0.6,4.9,1.5,7.5,2.6l-3.9,9.2c-1.9-0.9-3.9-1.6-6-2.2s-3.9-0.9-5.2-0.9c-2.3,0-3.5,0.6-3.5,1.7c0,0.7,0.4,1.3,1.2,1.8
		s3.2,1.5,7.1,3.1c2.9,1.2,5.1,2.4,6.5,3.5c1.4,1.1,2.5,2.5,3.1,4C994.9,3095.9,995.3,3097.7,995.3,3100z"/>
	<path class="st0" d="M1018.7,3102.1c1.9,0,4.2-0.5,6.9-1.4v10.4c-1.9,0.8-3.8,1.4-5.5,1.8c-1.7,0.4-3.8,0.5-6.1,0.5
		c-4.8,0-8.3-1.2-10.4-3.5c-2.1-2.4-3.2-6-3.2-10.9v-17.1h-5v-5.8l6.4-4.5l3.7-8.7h9.4v8.3h10.2v10.7h-10.2v16.2
		C1014.8,3100.8,1016.1,3102.1,1018.7,3102.1z"/>
</g>
<g>
	<path class="st0" d="M612.2,3150.4c0,4.9-1.6,8.7-4.8,11.3s-7.8,3.9-13.8,3.9h-4.9v17.6H581v-47.1h13.6c5.9,0,10.3,1.2,13.2,3.6
		S612.2,3145.7,612.2,3150.4z M588.7,3159.2h4.1c4,0,6.9-0.7,8.7-2.1s2.8-3.5,2.8-6.4c0-2.7-0.8-4.7-2.5-6.1s-4.2-2-7.7-2h-5.3
		V3159.2z"/>
	<path class="st0" d="M643.3,3183.3l-1.5-5h-0.3c-1.7,2.2-3.4,3.6-5.2,4.4c-1.7,0.8-4,1.2-6.7,1.2c-3.5,0-6.2-0.9-8.2-2.8
		c-2-1.9-2.9-4.6-2.9-8c0-3.7,1.4-6.4,4.1-8.3s6.9-2.9,12.5-3.1l6.2-0.2v-1.9c0-2.3-0.5-4-1.6-5.1c-1.1-1.1-2.7-1.7-4.9-1.7
		c-1.8,0-3.6,0.3-5.3,0.8s-3.3,1.2-4.8,1.9l-2.4-5.4c1.9-1,4-1.8,6.3-2.3c2.3-0.5,4.5-0.8,6.5-0.8c4.5,0,8,1,10.3,3s3.5,5.1,3.5,9.3
		v24H643.3z M632,3178.1c2.8,0,5-0.8,6.6-2.3c1.7-1.5,2.5-3.7,2.5-6.5v-3.1l-4.6,0.2c-3.6,0.1-6.2,0.7-7.8,1.8
		c-1.6,1.1-2.4,2.7-2.4,4.9c0,1.6,0.5,2.8,1.4,3.7C628.7,3177.7,630.1,3178.1,632,3178.1z"/>
	<path class="st0" d="M677.5,3147c1.5,0,2.8,0.1,3.8,0.3l-0.7,7.1c-1.1-0.3-2.2-0.4-3.4-0.4c-3,0-5.5,1-7.4,3s-2.8,4.5-2.8,7.7v18.6
		h-7.6v-35.6h5.9l1,6.3h0.4c1.2-2.1,2.7-3.8,4.6-5.1C673.3,3147.6,675.3,3147,677.5,3147z"/>
	<path class="st0" d="M687.6,3138.2c0-1.4,0.4-2.4,1.1-3.1c0.7-0.7,1.8-1.1,3.2-1.1c1.3,0,2.4,0.4,3.1,1.1c0.7,0.7,1.1,1.8,1.1,3.1
		c0,1.3-0.4,2.3-1.1,3c-0.7,0.7-1.8,1.1-3.1,1.1c-1.4,0-2.4-0.4-3.2-1.1C688,3140.5,687.6,3139.5,687.6,3138.2z M695.7,3183.3h-7.6
		v-35.6h7.6V3183.3z"/>
	<path class="st0" d="M730.6,3173.1c0,3.5-1.3,6.2-3.8,8s-6.2,2.8-10.9,2.8c-4.7,0-8.6-0.7-11.4-2.2v-6.5c4.2,1.9,8.1,2.9,11.7,2.9
		c4.7,0,7-1.4,7-4.2c0-0.9-0.3-1.7-0.8-2.3s-1.4-1.2-2.5-1.9s-2.8-1.4-4.9-2.2c-4.1-1.6-6.9-3.2-8.3-4.8c-1.5-1.6-2.2-3.7-2.2-6.2
		c0-3.1,1.2-5.4,3.7-7.1c2.5-1.7,5.8-2.5,10-2.5c4.2,0,8.2,0.8,11.9,2.5l-2.4,5.7c-3.8-1.6-7.1-2.4-9.7-2.4c-4,0-6,1.1-6,3.4
		c0,1.1,0.5,2.1,1.6,2.8s3.3,1.8,6.8,3.2c2.9,1.1,5.1,2.2,6.4,3.1s2.3,2,3,3.3S730.6,3171.4,730.6,3173.1z"/>
	<path class="st0" d="M785.8,3183.3h-31.9v-5.7l12.1-12.2c3.6-3.7,6-6.3,7.1-7.8c1.2-1.5,2-3,2.6-4.3s0.8-2.8,0.8-4.4
		c0-2.1-0.6-3.8-1.9-5c-1.3-1.2-3-1.8-5.3-1.8c-1.8,0-3.6,0.3-5.2,1s-3.6,1.9-5.8,3.6l-4.1-5c2.6-2.2,5.2-3.8,7.6-4.7
		s5.1-1.4,7.9-1.4c4.4,0,7.9,1.1,10.5,3.4c2.6,2.3,4,5.4,4,9.2c0,2.1-0.4,4.1-1.1,6.1s-1.9,3.9-3.5,5.9c-1.6,2-4.2,4.8-7.9,8.2
		l-8.2,7.9v0.3h22.4V3183.3z"/>
	<path class="st0" d="M823.7,3159.7c0,8.2-1.3,14.3-3.9,18.2s-6.7,6-12.1,6c-5.2,0-9.2-2.1-11.9-6.2s-4.1-10.1-4.1-18
		c0-8.3,1.3-14.4,3.9-18.4c2.6-3.9,6.6-5.9,12-5.9c5.3,0,9.2,2.1,12,6.2S823.7,3151.8,823.7,3159.7z M799.3,3159.7
		c0,6.4,0.7,11,2,13.8c1.3,2.8,3.4,4.1,6.3,4.1s5-1.4,6.4-4.2c1.3-2.8,2-7.4,2-13.7c0-6.3-0.7-10.9-2-13.7c-1.3-2.8-3.5-4.2-6.4-4.2
		s-5,1.4-6.3,4.2C800,3148.7,799.3,3153.3,799.3,3159.7z"/>
	<path class="st0" d="M851.8,3183.3h-7.6v-30.4c0-3.6,0.1-6.5,0.3-8.6c-0.5,0.5-1.1,1.1-1.8,1.7s-3.1,2.6-7.2,5.9l-3.8-4.8
		l13.9-10.9h6.3V3183.3z"/>
	<path class="st0" d="M867.6,3163.2c0-18.4,7.5-27.7,22.5-27.7c2.4,0,4.4,0.2,6,0.5v6.3c-1.6-0.5-3.5-0.7-5.7-0.7
		c-5,0-8.8,1.4-11.4,4.1s-3.9,7-4.1,13h0.4c1-1.7,2.4-3.1,4.3-4c1.8-1,4-1.4,6.4-1.4c4.3,0,7.6,1.3,10,3.9s3.6,6.2,3.6,10.7
		c0,4.9-1.4,8.8-4.1,11.7c-2.8,2.9-6.5,4.3-11.3,4.3c-3.4,0-6.3-0.8-8.8-2.4c-2.5-1.6-4.4-4-5.8-7.1
		C868.3,3171.3,867.6,3167.6,867.6,3163.2z M884,3177.7c2.6,0,4.6-0.8,6-2.5s2.1-4.1,2.1-7.2c0-2.7-0.7-4.8-2-6.4
		c-1.3-1.5-3.3-2.3-5.9-2.3c-1.6,0-3.1,0.3-4.5,1s-2.5,1.7-3.3,2.9c-0.8,1.2-1.2,2.5-1.2,3.7c0,3,0.8,5.6,2.5,7.7
		C879.4,3176.6,881.5,3177.7,884,3177.7z"/>
</g>
</svg>
